<svg width="160" height="36" viewBox="0 0 160 36" fill="none" xmlns="http://www.w3.org/2000/svg">
<rect y="2" width="32" height="32" rx="8" fill="#9FB5B8"/>
<rect x="17.3333" y="19.3334" width="9.33333" height="9.33333" rx="4.66667" fill="white"/>
<rect x="14" y="17.3334" width="9.33333" height="9.33333" rx="4.66667" fill="#5A7E90"/>
<path d="M44.536 8.24V26H41.8V8.24H44.536ZM49.5201 11.024C49.0241 11.024 48.6081 10.856 48.2721 10.52C47.9361 10.184 47.7681 9.768 47.7681 9.272C47.7681 8.776 47.9361 8.36 48.2721 8.024C48.6081 7.688 49.0241 7.52 49.5201 7.52C50.0001 7.52 50.4081 7.688 50.7441 8.024C51.0801 8.36 51.2481 8.776 51.2481 9.272C51.2481 9.768 51.0801 10.184 50.7441 10.52C50.4081 10.856 50.0001 11.024 49.5201 11.024ZM50.8641 12.776V26H48.1281V12.776H50.8641ZM70.4643 12.56C71.5043 12.56 72.4323 12.776 73.2483 13.208C74.0803 13.64 74.7283 14.28 75.1923 15.128C75.6723 15.976 75.9123 17 75.9123 18.2V26H73.2003V18.608C73.2003 17.424 72.9043 16.52 72.3123 15.896C71.7203 15.256 70.9123 14.936 69.8883 14.936C68.8643 14.936 68.0483 15.256 67.4403 15.896C66.8483 16.52 66.5523 17.424 66.5523 18.608V26H63.8403V18.608C63.8403 17.424 63.5443 16.52 62.9523 15.896C62.3603 15.256 61.5523 14.936 60.5283 14.936C59.5043 14.936 58.6883 15.256 58.0803 15.896C57.4883 16.52 57.1923 17.424 57.1923 18.608V26H54.4563V12.776H57.1923V14.288C57.6403 13.744 58.2083 13.32 58.8963 13.016C59.5843 12.712 60.3203 12.56 61.1043 12.56C62.1603 12.56 63.1043 12.784 63.9363 13.232C64.7683 13.68 65.4083 14.328 65.8563 15.176C66.2563 14.376 66.8803 13.744 67.7283 13.28C68.5763 12.8 69.4883 12.56 70.4643 12.56ZM91.5138 19.064C91.5138 19.56 91.4818 20.008 91.4178 20.408H81.3138C81.3938 21.464 81.7858 22.312 82.4898 22.952C83.1938 23.592 84.0578 23.912 85.0818 23.912C86.5538 23.912 87.5938 23.296 88.2018 22.064H91.1537C90.7538 23.28 90.0258 24.28 88.9698 25.064C87.9298 25.832 86.6338 26.216 85.0818 26.216C83.8178 26.216 82.6818 25.936 81.6738 25.376C80.6818 24.8 79.8978 24 79.3218 22.976C78.7618 21.936 78.4818 20.736 78.4818 19.376C78.4818 18.016 78.7538 16.824 79.2978 15.8C79.8578 14.76 80.6338 13.96 81.6258 13.4C82.6338 12.84 83.7858 12.56 85.0818 12.56C86.3298 12.56 87.4418 12.832 88.4178 13.376C89.3938 13.92 90.1538 14.688 90.6978 15.68C91.2418 16.656 91.5138 17.784 91.5138 19.064ZM88.6578 18.2C88.6418 17.192 88.2818 16.384 87.5778 15.776C86.8738 15.168 86.0018 14.864 84.9618 14.864C84.0178 14.864 83.2098 15.168 82.5378 15.776C81.8658 16.368 81.4658 17.176 81.3378 18.2H88.6578ZM99.0063 26.216C97.9663 26.216 97.0303 26.032 96.1983 25.664C95.3823 25.28 94.7343 24.768 94.2543 24.128C93.7743 23.472 93.5183 22.744 93.4863 21.944H96.3183C96.3663 22.504 96.6303 22.976 97.1103 23.36C97.6063 23.728 98.2223 23.912 98.9583 23.912C99.7263 23.912 100.318 23.768 100.734 23.48C101.166 23.176 101.382 22.792 101.382 22.328C101.382 21.832 101.142 21.464 100.662 21.224C100.198 20.984 99.4543 20.72 98.4303 20.432C97.4383 20.16 96.6303 19.896 96.0063 19.64C95.3823 19.384 94.8383 18.992 94.3743 18.464C93.9263 17.936 93.7023 17.24 93.7023 16.376C93.7023 15.672 93.9103 15.032 94.3263 14.456C94.7423 13.864 95.3343 13.4 96.1023 13.064C96.8863 12.728 97.7823 12.56 98.7903 12.56C100.294 12.56 101.502 12.944 102.414 13.712C103.342 14.464 103.838 15.496 103.902 16.808H101.166C101.118 16.216 100.878 15.744 100.446 15.392C100.014 15.04 99.4303 14.864 98.6943 14.864C97.9743 14.864 97.4223 15 97.0383 15.272C96.6543 15.544 96.4623 15.904 96.4623 16.352C96.4623 16.704 96.5903 17 96.8463 17.24C97.1023 17.48 97.4143 17.672 97.7823 17.816C98.1503 17.944 98.6943 18.112 99.4143 18.32C100.374 18.576 101.158 18.84 101.766 19.112C102.39 19.368 102.926 19.752 103.374 20.264C103.822 20.776 104.054 21.456 104.07 22.304C104.07 23.056 103.862 23.728 103.446 24.32C103.03 24.912 102.438 25.376 101.67 25.712C100.918 26.048 100.03 26.216 99.0063 26.216ZM110.219 15.008V22.328C110.219 22.824 110.331 23.184 110.555 23.408C110.795 23.616 111.195 23.72 111.755 23.72H113.435V26H111.275C110.043 26 109.099 25.712 108.443 25.136C107.787 24.56 107.459 23.624 107.459 22.328V15.008H105.899V12.776H107.459V9.488H110.219V12.776H113.435V15.008H110.219ZM121.692 26.216C120.444 26.216 119.316 25.936 118.308 25.376C117.3 24.8 116.508 24 115.932 22.976C115.356 21.936 115.068 20.736 115.068 19.376C115.068 18.032 115.364 16.84 115.956 15.8C116.548 14.76 117.356 13.96 118.38 13.4C119.404 12.84 120.548 12.56 121.812 12.56C123.076 12.56 124.22 12.84 125.244 13.4C126.268 13.96 127.076 14.76 127.668 15.8C128.26 16.84 128.556 18.032 128.556 19.376C128.556 20.72 128.252 21.912 127.644 22.952C127.036 23.992 126.204 24.8 125.148 25.376C124.108 25.936 122.956 26.216 121.692 26.216ZM121.692 23.84C122.396 23.84 123.052 23.672 123.66 23.336C124.284 23 124.788 22.496 125.172 21.824C125.556 21.152 125.748 20.336 125.748 19.376C125.748 18.416 125.564 17.608 125.196 16.952C124.828 16.28 124.34 15.776 123.732 15.44C123.124 15.104 122.468 14.936 121.764 14.936C121.06 14.936 120.404 15.104 119.796 15.44C119.204 15.776 118.732 16.28 118.38 16.952C118.028 17.608 117.852 18.416 117.852 19.376C117.852 20.8 118.212 21.904 118.932 22.688C119.668 23.456 120.588 23.84 121.692 23.84ZM137.933 12.56C138.973 12.56 139.901 12.776 140.717 13.208C141.549 13.64 142.197 14.28 142.661 15.128C143.125 15.976 143.357 17 143.357 18.2V26H140.645V18.608C140.645 17.424 140.349 16.52 139.757 15.896C139.165 15.256 138.357 14.936 137.333 14.936C136.309 14.936 135.493 15.256 134.885 15.896C134.293 16.52 133.997 17.424 133.997 18.608V26H131.261V12.776H133.997V14.288C134.445 13.744 135.013 13.32 135.701 13.016C136.405 12.712 137.149 12.56 137.933 12.56ZM158.967 19.064C158.967 19.56 158.935 20.008 158.871 20.408H148.767C148.847 21.464 149.239 22.312 149.943 22.952C150.647 23.592 151.511 23.912 152.535 23.912C154.007 23.912 155.047 23.296 155.655 22.064H158.607C158.207 23.28 157.479 24.28 156.423 25.064C155.383 25.832 154.087 26.216 152.535 26.216C151.271 26.216 150.135 25.936 149.127 25.376C148.135 24.8 147.351 24 146.775 22.976C146.215 21.936 145.935 20.736 145.935 19.376C145.935 18.016 146.207 16.824 146.751 15.8C147.311 14.76 148.087 13.96 149.079 13.4C150.087 12.84 151.239 12.56 152.535 12.56C153.783 12.56 154.895 12.832 155.871 13.376C156.847 13.92 157.607 14.688 158.151 15.68C158.695 16.656 158.967 17.784 158.967 19.064ZM156.111 18.2C156.095 17.192 155.735 16.384 155.031 15.776C154.327 15.168 153.455 14.864 152.415 14.864C151.471 14.864 150.663 15.168 149.991 15.776C149.319 16.368 148.919 17.176 148.791 18.2H156.111Z" fill="#5A7E90"/>
</svg>
